<svg width="96" height="96" viewBox="0 0 96 96" fill="none" xmlns="http://www.w3.org/2000/svg">
<g clip-path="url(#clip0_1143_152)">
<path d="M95.9858 47.9976C95.9858 74.5057 74.6017 95.9952 48.2215 95.9952C21.8417 95.9952 0.457092 74.5057 0.457092 47.9976C0.457092 21.4885 21.8417 0 48.2215 0C74.6017 0 95.9858 21.4885 95.9858 47.9976Z" fill="#212121"/>
<path d="M48.2215 57.4162L38.8477 47.9977L48.2215 38.5781L57.5952 47.9977L48.2215 57.4162ZM69.5234 47.9977L69.4838 48.0365L78.1779 56.7726L86.9106 47.9972L78.1172 39.1608L69.4236 47.8969L69.5234 47.9977Z" fill="#F4BB0B"/>
<path d="M33.1552 41.7311L48.2215 26.5912L63.5094 41.9538L72.2025 33.2183L48.2215 9.11914L24.4616 32.9951L33.1552 41.7311ZM63.5696 53.9801L48.2215 69.4032L33.0095 54.1159L24.3164 62.8525L48.2215 86.8752L72.2632 62.7161L63.5696 53.9801ZM26.92 47.9977L27.241 47.6747L18.5469 38.9381L9.53281 47.9977L18.4017 56.9099L27.0948 48.1743L26.92 47.9977Z" fill="#F4BB0B"/>
</g>
<defs>
<clipPath id="clip0_1143_152">
<rect width="96" height="96" fill="white"/>
</clipPath>
</defs>
</svg>
