<svg width="96" height="96" viewBox="0 0 96 96" fill="none" xmlns="http://www.w3.org/2000/svg">
<g clip-path="url(#clip0_1142_133)">
<path d="M94.5712 59.5985C88.1865 85.3493 62.0799 100.956 36.399 94.5713C10.7181 88.1868 -4.96011 62.0813 1.42465 36.4015C7.80941 10.6507 33.845 -4.95577 59.5969 1.42872C85.3488 7.88414 100.956 33.9187 94.5712 59.5985Z" fill="#F7941D"/>
<path d="M68.7975 40.8652C69.7197 34.4807 64.8958 31.0756 58.2272 28.7346L60.3555 20.0801L55.1058 18.7323L52.9775 27.174C51.5587 26.8193 50.1398 26.5355 48.7919 26.1808L50.9202 17.6682L45.6705 16.3203L43.5422 24.9749C42.4072 24.6911 41.2721 24.4783 40.208 24.1946L32.9719 22.3501L31.5531 27.9543C31.5531 27.9543 35.4549 28.8765 35.3839 28.8765C37.5122 29.444 37.9378 30.7919 37.8669 31.9269L35.3839 41.7874C35.5258 41.8583 35.7387 41.8583 35.9515 41.9292C35.8096 41.8583 35.5968 41.8583 35.3839 41.7874L31.9078 55.6204C31.624 56.2589 30.9856 57.252 29.4958 56.8973C29.5668 56.9683 25.6649 55.9751 25.6649 55.9751L23.04 62.0049L29.9214 63.7074C31.1984 64.0621 32.4753 64.3459 33.6813 64.7006L31.4821 73.426L36.7318 74.7739L38.8601 66.1194C40.2789 66.545 41.6978 66.8997 43.0457 67.1834L40.9174 75.767L46.1671 77.1149L48.3663 68.3894C57.3759 70.0919 64.1154 69.3825 66.953 61.2955C69.2232 54.7691 66.8112 51.0094 62.129 48.5265C65.5342 47.8171 68.0881 45.5471 68.7975 40.8652ZM56.7374 57.7486C55.1057 64.2749 44.1098 60.728 40.4918 59.8767L43.4004 48.3137C47.0184 49.165 58.44 50.9384 56.7374 57.7486ZM58.3691 40.7942C56.8793 46.7531 47.7278 43.7027 44.7483 42.9933L47.3731 32.4944C50.3527 33.2038 59.9298 34.5516 58.3691 40.7942Z" fill="#FFFDFA"/>
</g>
<defs>
<clipPath id="clip0_1142_133">
<rect width="96" height="96" fill="white"/>
</clipPath>
</defs>
</svg>
