<svg width="96" height="96" viewBox="0 0 96 96" fill="none" xmlns="http://www.w3.org/2000/svg">
<g clip-path="url(#clip0_1142_136)">
<path d="M48 96C74.5097 96 96 74.5097 96 48C96 21.4903 74.5097 0 48 0C21.4903 0 0 21.4903 0 48C0 74.5097 21.4903 96 48 96Z" fill="#F0B90B"/>
<path fill-rule="evenodd" clip-rule="evenodd" d="M27.5718 35.8085L48.0199 15.3604L56.1732 23.5136L35.725 43.9617L27.5718 35.8085ZM27.5867 60.2432L60.2647 27.5653L68.4179 35.7185L35.74 68.3965L27.5867 60.2432ZM72.4862 39.8099L39.8082 72.4877L47.9614 80.6411L80.6394 47.9631L72.4862 39.8099ZM15.3601 48.0176L23.5133 39.8643L31.6666 48.0176L23.5133 56.1709L15.3601 48.0176Z" fill="#FFFDFA"/>
</g>
<defs>
<clipPath id="clip0_1142_136">
<rect width="96" height="96" fill="white"/>
</clipPath>
</defs>
</svg>
