<svg width="96" height="96" viewBox="0 0 96 96" fill="none" xmlns="http://www.w3.org/2000/svg">
<g clip-path="url(#clip0_1142_139)">
<path d="M48 96C74.5097 96 96 74.5097 96 48C96 21.4903 74.5097 0 48 0C21.4903 0 0 21.4903 0 48C0 74.5097 21.4903 96 48 96Z" fill="#F5F3F3"/>
<path d="M48 64.9741V81.6923L68.5762 52.7998L48 64.9741Z" fill="#2F3030"/>
<path d="M48 39.1768V60.696L68.5762 48.5218L48 39.1768Z" fill="#08060B"/>
<path d="M48 14.3994V39.1766L68.5762 48.5216L48 14.3994Z" fill="#2F3030"/>
<path d="M48 64.9741V81.6923L27.4238 52.7998L48 64.9741Z" fill="#828384"/>
<path d="M48 39.1768V60.696L27.4238 48.5218L48 39.1768Z" fill="#343535"/>
<path d="M48 14.3994V39.1766L27.4238 48.5216L48 14.3994Z" fill="#828384"/>
</g>
<defs>
<clipPath id="clip0_1142_139">
<rect width="96" height="96" fill="white"/>
</clipPath>
</defs>
</svg>
