<svg width="10" height="11" viewBox="0 0 10 11" fill="none" xmlns="http://www.w3.org/2000/svg">
<circle cx="5" cy="6" r="4.5" stroke="url(#paint0_linear_452_1287)"/>
<path d="M4.07 7.32C4.07 7.12 4.1 6.94 4.16 6.78C4.22667 6.62 4.30667 6.47667 4.4 6.35C4.5 6.22333 4.60333 6.11 4.71 6.01C4.82333 5.90333 4.92667 5.80333 5.02 5.71C5.12 5.61667 5.2 5.52333 5.26 5.43C5.32667 5.33667 5.36 5.24 5.36 5.14C5.36 4.98667 5.29333 4.87 5.16 4.79C5.03333 4.71 4.87667 4.67 4.69 4.67C4.47667 4.67 4.27667 4.73 4.09 4.85C3.90333 4.97 3.75667 5.13667 3.65 5.35L1.87 4.46C2.12333 3.98 2.50667 3.59 3.02 3.29C3.53333 2.99 4.19 2.84 4.99 2.84C5.51667 2.84 5.98333 2.91333 6.39 3.06C6.80333 3.2 7.13 3.41333 7.37 3.7C7.61 3.98 7.73 4.33 7.73 4.75C7.73 5.00333 7.69 5.22667 7.61 5.42C7.53667 5.61333 7.43667 5.78333 7.31 5.93C7.19 6.07 7.06333 6.2 6.93 6.32C6.79667 6.44 6.66667 6.55333 6.54 6.66C6.42 6.76 6.32 6.86333 6.24 6.97C6.16667 7.07667 6.13 7.19333 6.13 7.32H4.07ZM5.1 10.1C4.71333 10.1 4.39667 9.98333 4.15 9.75C3.90333 9.51 3.78 9.22667 3.78 8.9C3.78 8.56667 3.90333 8.28667 4.15 8.06C4.39667 7.83333 4.71333 7.72 5.1 7.72C5.49333 7.72 5.81 7.83333 6.05 8.06C6.29667 8.28667 6.42 8.56667 6.42 8.9C6.42 9.22667 6.29667 9.51 6.05 9.75C5.81 9.98333 5.49333 10.1 5.1 10.1Z" fill="url(#paint1_linear_452_1287)"/>
<defs>
<linearGradient id="paint0_linear_452_1287" x1="5" y1="1" x2="5" y2="11" gradientUnits="userSpaceOnUse">
<stop stop-color="#4200FF"/>
<stop offset="1" stop-color="#9A33D2"/>
</linearGradient>
<linearGradient id="paint1_linear_452_1287" x1="4.5" y1="0" x2="4.5" y2="9" gradientUnits="userSpaceOnUse">
<stop stop-color="#4200FF"/>
<stop offset="1" stop-color="#9A33D2"/>
</linearGradient>
</defs>
</svg>
